<?xml version="1.0" standalone="no"?>
<!DOCTYPE svg PUBLIC "-//W3C//DTD SVG 20010904//EN"
 "http://www.w3.org/TR/2001/REC-SVG-20010904/DTD/svg10.dtd">
<svg version="1.0" xmlns="http://www.w3.org/2000/svg"
 width="512.000000pt" height="512.000000pt" viewBox="0 0 512.000000 512.000000"
 preserveAspectRatio="xMidYMid meet">
<metadata>
Created by potrace 1.11, written by Peter Selinger 2001-2013
</metadata>
<g transform="translate(0.000000,512.000000) scale(0.100000,-0.100000)"
fill="#000000" stroke="none">
<path d="M0 2560 l0 -2560 2560 0 2560 0 0 2560 0 2560 -2560 0 -2560 0 0
-2560z m2880 2311 c0 -5 29 -13 65 -16 36 -4 65 -11 65 -15 0 -4 23 -10 52
-12 29 -3 54 -11 56 -17 2 -6 21 -11 43 -11 21 0 39 -4 39 -10 0 -5 18 -13 40
-16 22 -4 40 -10 40 -14 0 -4 18 -10 40 -14 22 -3 40 -11 40 -16 0 -6 14 -10
30 -10 17 0 30 -4 30 -10 0 -5 11 -12 25 -16 14 -3 25 -10 25 -14 0 -4 11 -11
25 -14 14 -4 25 -11 25 -16 0 -6 11 -10 24 -10 13 0 26 -7 30 -15 3 -8 15 -15
26 -15 11 0 20 -4 20 -10 0 -5 7 -10 15 -10 9 0 18 -7 21 -15 4 -8 17 -15 30
-15 15 0 24 -6 24 -15 0 -8 5 -15 10 -15 10 0 22 -8 55 -37 7 -7 18 -13 24
-13 6 0 11 -4 11 -10 0 -5 7 -10 15 -10 8 0 15 -6 15 -14 0 -8 11 -17 25 -20
14 -4 25 -11 25 -16 0 -6 7 -10 15 -10 8 0 15 -7 15 -15 0 -8 5 -15 11 -15 14
0 39 -25 39 -39 0 -6 7 -11 15 -11 8 0 15 -7 15 -15 0 -8 5 -15 11 -15 14 0
39 -25 39 -39 0 -6 7 -11 15 -11 8 0 15 -7 15 -15 0 -8 5 -15 11 -15 14 0 39
-25 39 -39 0 -6 7 -11 15 -11 8 0 15 -7 15 -15 0 -8 4 -15 10 -15 5 0 12 -11
16 -25 3 -14 12 -25 20 -25 8 0 14 -7 14 -15 0 -8 5 -15 10 -15 6 0 10 -5 10
-10 0 -10 8 -22 38 -55 6 -7 12 -18 12 -24 0 -6 7 -11 15 -11 9 0 15 -9 15
-24 0 -13 7 -26 15 -30 8 -3 15 -12 15 -21 0 -8 4 -15 10 -15 5 0 12 -11 16
-25 3 -14 10 -25 15 -25 5 0 9 -11 9 -25 0 -16 6 -25 15 -25 9 0 15 -9 15 -25
0 -14 4 -25 9 -25 5 0 12 -11 15 -25 4 -14 11 -25 16 -25 6 0 10 -13 10 -30 0
-16 4 -30 10 -30 5 0 12 -11 16 -25 3 -14 10 -25 15 -25 5 0 9 -11 9 -25 0
-14 7 -28 15 -31 10 -4 15 -20 15 -44 0 -21 5 -40 11 -42 6 -2 13 -25 16 -51
3 -26 9 -47 13 -47 4 0 11 -25 15 -55 3 -30 11 -55 16 -55 5 0 9 -29 9 -64 0
-43 4 -66 13 -68 8 -3 13 -35 15 -96 2 -51 8 -92 13 -92 5 0 9 -98 9 -225 0
-127 -4 -225 -9 -225 -5 0 -11 -41 -13 -92 -2 -61 -7 -93 -15 -96 -9 -2 -13
-25 -13 -67 0 -38 -4 -65 -11 -67 -6 -2 -14 -27 -17 -56 -2 -29 -8 -52 -12
-52 -4 0 -10 -18 -14 -40 -3 -22 -11 -40 -16 -40 -6 0 -10 -16 -10 -36 0 -19
-7 -42 -15 -50 -8 -9 -15 -29 -15 -45 0 -16 -4 -29 -9 -29 -5 0 -12 -11 -15
-25 -4 -14 -11 -25 -16 -25 -6 0 -10 -11 -10 -25 0 -14 -4 -25 -9 -25 -5 0
-12 -14 -16 -30 -4 -17 -10 -30 -15 -30 -4 0 -11 -11 -14 -25 -4 -14 -11 -25
-16 -25 -6 0 -10 -7 -10 -15 0 -8 -4 -15 -10 -15 -5 0 -10 -6 -10 -14 0 -8 -6
-21 -14 -28 -7 -8 -17 -24 -20 -36 -4 -12 -12 -22 -17 -22 -5 0 -9 -7 -9 -15
0 -15 -6 -25 -37 -60 -7 -7 -13 -19 -13 -25 0 -6 -7 -13 -15 -16 -8 -4 -15
-13 -15 -21 0 -7 -11 -24 -25 -37 -14 -13 -25 -28 -25 -35 0 -6 -7 -11 -15
-11 -8 0 -15 -5 -15 -11 0 -14 -55 -69 -69 -69 -6 0 -11 -11 -11 -24 0 -17 -7
-26 -24 -30 -14 -3 -28 -15 -31 -26 -3 -11 -11 -20 -16 -20 -5 0 -9 -7 -9 -15
0 -8 -7 -15 -15 -15 -8 0 -15 -7 -15 -15 0 -9 -9 -15 -25 -15 -14 0 -25 -5
-25 -11 0 -14 -25 -39 -39 -39 -6 0 -11 -7 -11 -15 0 -8 -7 -15 -15 -15 -8 0
-15 -4 -15 -10 0 -5 -11 -12 -25 -16 -14 -3 -25 -10 -25 -15 0 -5 -7 -9 -15
-9 -8 0 -15 -7 -15 -15 0 -8 -7 -15 -15 -15 -8 0 -15 -4 -15 -10 0 -5 -11 -12
-25 -16 -14 -3 -25 -10 -25 -15 0 -5 -7 -9 -15 -9 -8 0 -15 -7 -15 -15 0 -9
-9 -15 -25 -15 -14 0 -25 -4 -25 -10 0 -5 -11 -12 -25 -16 -14 -3 -25 -10 -25
-14 0 -5 -13 -11 -30 -15 -16 -4 -30 -11 -30 -16 0 -5 -9 -9 -21 -9 -11 0 -27
-7 -35 -15 -9 -8 -24 -15 -35 -15 -10 0 -19 -4 -19 -10 0 -5 -11 -12 -25 -16
-14 -3 -25 -10 -25 -15 0 -5 -18 -9 -40 -9 -22 0 -40 -4 -40 -10 0 -5 -18 -13
-40 -16 -22 -4 -40 -10 -40 -14 0 -4 -21 -10 -47 -13 -26 -3 -49 -10 -51 -16
-2 -6 -27 -11 -57 -11 -31 0 -55 -5 -57 -11 -3 -8 -42 -14 -106 -17 -56 -2
-102 -9 -102 -13 0 -5 -85 -9 -190 -9 -106 0 -190 4 -190 9 0 5 -41 11 -92 13
-61 2 -93 7 -96 16 -2 8 -25 12 -67 12 -37 0 -65 5 -67 11 -2 6 -25 13 -51 16
-26 3 -47 9 -47 14 0 5 -18 12 -40 15 -22 4 -40 10 -40 15 0 5 -13 9 -30 9
-16 0 -30 4 -30 10 0 5 -16 12 -35 16 -19 3 -35 10 -35 14 0 5 -13 11 -30 15
-16 4 -30 11 -30 16 0 5 -11 9 -25 9 -14 0 -25 4 -25 9 0 5 -11 12 -25 15 -14
4 -25 11 -25 16 0 6 -7 10 -15 10 -9 0 -18 7 -21 15 -4 8 -17 15 -30 15 -13 0
-24 4 -24 9 0 5 -10 13 -22 17 -13 4 -33 17 -45 30 -12 13 -31 24 -43 24 -11
0 -20 7 -20 15 0 8 -5 15 -11 15 -7 0 -22 11 -35 25 -13 14 -28 25 -34 25 -6
0 -21 11 -34 25 -13 14 -28 25 -35 25 -6 0 -11 7 -11 15 0 8 -5 15 -11 15 -14
0 -69 55 -69 69 0 6 -5 11 -11 11 -14 0 -69 55 -69 69 0 6 -7 11 -15 11 -8 0
-15 5 -15 11 0 14 -25 39 -39 39 -6 0 -11 7 -11 15 0 8 -4 15 -9 15 -5 0 -13
10 -16 22 -4 11 -18 31 -31 43 -13 12 -24 27 -24 34 0 6 -4 11 -10 11 -5 0
-12 11 -16 25 -3 14 -12 25 -20 25 -8 0 -14 7 -14 15 0 8 -4 15 -10 15 -5 0
-10 11 -10 25 0 16 -6 25 -15 25 -8 0 -15 7 -15 15 0 8 -4 15 -9 15 -5 0 -12
11 -15 25 -4 14 -11 25 -16 25 -6 0 -10 11 -10 24 0 13 -7 26 -15 30 -8 3 -15
15 -15 26 0 11 -4 20 -9 20 -5 0 -12 13 -16 30 -4 16 -11 30 -16 30 -5 0 -9
14 -9 30 0 17 -4 30 -10 30 -5 0 -12 11 -16 25 -3 14 -10 25 -14 25 -4 0 -10
18 -14 40 -3 22 -11 40 -16 40 -6 0 -10 11 -10 25 0 14 -4 25 -9 25 -5 0 -12
23 -16 50 -4 28 -10 50 -15 50 -4 0 -10 23 -12 52 -3 29 -11 54 -17 56 -7 2
-11 29 -11 67 0 37 -5 65 -11 67 -7 2 -13 47 -16 111 -3 59 -10 107 -14 107
-5 0 -9 79 -9 175 0 96 4 175 9 175 5 0 11 50 13 112 3 73 9 113 16 116 8 2
12 28 12 69 0 44 5 69 15 79 8 9 15 33 15 55 0 21 4 39 9 39 4 0 11 19 14 42
3 24 11 44 16 46 6 2 11 19 11 38 0 19 4 34 9 34 5 0 12 14 16 30 4 17 11 30
16 30 5 0 9 11 9 25 0 14 7 28 15 31 9 4 15 19 15 40 0 19 5 34 10 34 6 0 10
6 10 14 0 8 6 21 13 28 8 7 17 26 21 41 3 15 11 27 16 27 6 0 10 9 10 20 0 12
11 31 24 43 13 12 26 32 30 45 4 12 12 22 17 22 5 0 9 9 9 20 0 12 11 31 25
44 14 13 25 28 25 35 0 6 7 11 15 11 8 0 15 9 15 20 0 11 18 38 40 60 22 22
40 42 40 45 0 7 15 25 53 65 15 15 27 33 27 39 0 6 5 11 11 11 14 0 69 55 69
69 0 6 5 11 11 11 6 0 24 12 39 28 40 37 58 52 65 52 3 0 23 18 45 40 22 22
49 40 60 40 11 0 20 7 20 15 0 8 5 15 11 15 7 0 22 11 35 25 13 14 32 25 44
25 11 0 20 4 20 9 0 5 10 13 22 17 12 3 28 13 36 20 7 8 20 14 28 14 8 0 14 5
14 10 0 6 7 10 15 10 8 0 15 4 15 9 0 5 14 12 30 16 17 4 30 11 30 16 0 5 11
11 25 15 14 3 25 10 25 15 0 5 11 9 25 9 14 0 25 4 25 10 0 5 18 13 40 16 22
4 40 10 40 14 0 4 18 10 40 14 22 3 40 11 40 16 0 6 18 10 39 10 22 0 41 5 43
11 2 6 27 14 56 17 29 2 52 8 52 12 0 4 34 11 75 15 41 4 75 11 75 16 0 5 129
9 310 9 182 0 310 -4 310 -9z"/>
<path d="M2288 4470 c-1 -5 -31 -13 -65 -16 -35 -4 -63 -11 -63 -15 0 -5 -18
-9 -40 -9 -29 0 -40 -4 -40 -15 0 -11 -12 -15 -50 -15 -27 0 -50 -4 -50 -9 0
-5 -13 -12 -30 -16 -16 -4 -30 -10 -30 -15 0 -4 -18 -10 -40 -14 -22 -3 -40
-11 -40 -16 0 -6 -9 -10 -20 -10 -12 0 -31 -11 -43 -24 -12 -13 -32 -26 -44
-30 -13 -4 -23 -12 -23 -17 0 -5 -11 -9 -24 -9 -13 0 -26 -7 -30 -15 -3 -8
-10 -15 -16 -15 -10 0 -21 -8 -55 -37 -7 -7 -16 -13 -20 -13 -3 0 -16 -11 -28
-24 -12 -13 -32 -26 -44 -30 -13 -4 -23 -12 -23 -17 0 -5 -7 -9 -15 -9 -8 0
-15 -7 -15 -15 0 -8 -5 -15 -11 -15 -14 0 -39 -25 -39 -39 0 -6 -7 -11 -15
-11 -8 0 -15 -7 -15 -15 0 -8 -5 -15 -11 -15 -14 0 -39 -25 -39 -39 0 -6 -7
-11 -15 -11 -8 0 -15 -5 -15 -11 0 -6 -12 -24 -27 -39 -43 -45 -53 -58 -53
-70 0 -5 -4 -10 -10 -10 -5 0 -10 -7 -10 -15 0 -8 -6 -15 -14 -15 -8 0 -17
-11 -20 -25 -4 -14 -11 -25 -16 -25 -6 0 -10 -7 -10 -15 0 -8 -4 -15 -10 -15
-5 0 -10 -6 -10 -14 0 -8 -6 -21 -14 -28 -7 -8 -17 -24 -20 -36 -4 -12 -12
-22 -17 -22 -5 0 -9 -13 -9 -30 0 -20 -5 -30 -15 -30 -9 0 -15 -9 -15 -25 0
-14 -4 -25 -9 -25 -5 0 -12 -13 -16 -30 -4 -16 -11 -30 -16 -30 -5 0 -9 -11
-9 -25 0 -14 -4 -25 -9 -25 -13 0 -24 -55 -16 -80 6 -19 15 -20 151 -20 89 0
144 4 144 10 0 6 92 10 255 10 140 0 255 4 255 9 0 4 26 11 57 14 32 3 59 11
61 17 2 5 9 10 16 10 13 0 46 35 46 50 0 6 4 10 9 10 5 0 13 10 17 23 4 12 17
32 30 44 13 12 24 25 24 28 0 8 27 35 35 35 3 0 16 11 29 25 13 14 33 25 45
25 12 0 24 7 27 15 5 12 33 15 164 15 118 0 159 -3 163 -12 3 -10 50 -13 192
-13 142 0 189 3 193 13 2 7 22 12 49 12 41 0 44 -1 37 -22 -3 -13 -11 -24 -15
-26 -5 -2 -9 -10 -9 -18 0 -8 -7 -14 -15 -14 -9 0 -15 -9 -15 -25 0 -16 -6
-25 -15 -25 -8 0 -15 -7 -15 -15 0 -8 -5 -15 -11 -15 -6 0 -17 -6 -24 -12 -32
-29 -42 -35 -68 -42 -15 -3 -27 -11 -27 -16 0 -6 -12 -10 -26 -10 -14 0 -32
-7 -40 -15 -9 -8 -33 -15 -55 -15 -21 0 -39 -4 -39 -9 0 -5 -18 -11 -40 -15
-22 -3 -40 -11 -40 -16 0 -6 -9 -10 -20 -10 -11 0 -29 -9 -40 -20 -11 -11 -20
-29 -20 -40 0 -11 -4 -20 -10 -20 -5 0 -13 -18 -16 -40 -4 -22 -10 -40 -14
-40 -4 0 -10 -18 -14 -40 -3 -22 -11 -40 -16 -40 -6 0 -10 -43 -10 -105 0 -62
4 -105 10 -105 5 0 13 -18 16 -40 4 -22 10 -40 14 -40 5 0 11 -13 15 -30 4
-16 11 -30 16 -30 5 0 9 -11 9 -25 0 -14 4 -25 10 -25 5 0 12 -17 16 -37 4
-21 12 -41 18 -45 8 -6 8 -10 -1 -16 -6 -4 -15 -20 -18 -35 -4 -15 -11 -27
-16 -27 -5 0 -9 -11 -9 -24 0 -13 -7 -27 -16 -30 -13 -5 -15 -16 -11 -53 3
-26 10 -49 16 -51 6 -2 11 -15 11 -28 0 -13 4 -24 10 -24 5 0 13 -18 16 -40 4
-22 10 -40 15 -40 5 0 9 -54 9 -121 0 -94 -3 -124 -15 -135 -8 -9 -15 -26 -15
-40 0 -13 -4 -24 -10 -24 -5 0 -10 -11 -10 -25 0 -14 -4 -25 -9 -25 -5 0 -12
-14 -16 -30 -4 -17 -10 -30 -15 -30 -4 0 -11 -11 -14 -25 -4 -14 -11 -25 -16
-25 -6 0 -10 -7 -10 -15 0 -13 -23 -15 -150 -15 -127 0 -150 2 -150 15 0 8 -4
15 -10 15 -5 0 -10 11 -10 25 0 16 -6 25 -15 25 -9 0 -15 9 -15 25 0 14 -4 25
-10 25 -5 0 -10 7 -10 15 0 8 -7 15 -15 15 -8 0 -15 9 -15 20 0 18 -32 60 -46
60 -7 0 -34 27 -34 34 0 3 -20 26 -44 51 -50 51 -82 58 -92 20 -3 -14 -10 -25
-15 -25 -5 0 -9 -5 -9 -11 0 -6 -7 -17 -15 -25 -8 -9 -15 -26 -15 -40 0 -13
-4 -24 -9 -24 -5 0 -11 -23 -13 -52 -3 -29 -11 -54 -17 -56 -6 -2 -11 -17 -11
-33 0 -16 -4 -29 -10 -29 -5 0 -12 -11 -16 -25 -3 -14 -10 -25 -15 -25 -5 0
-9 -18 -9 -40 0 -22 5 -40 10 -40 6 0 10 -13 10 -29 0 -16 7 -36 15 -45 8 -8
15 -24 15 -34 0 -14 9 -22 30 -27 17 -4 30 -11 30 -16 0 -5 11 -9 25 -9 14 0
25 -4 25 -9 0 -5 11 -12 25 -15 14 -4 25 -11 25 -16 0 -6 11 -10 25 -10 14 0
28 -7 31 -15 4 -9 19 -15 39 -15 20 0 35 -6 39 -15 3 -8 17 -15 31 -15 14 0
25 -4 25 -9 0 -5 18 -11 40 -15 22 -3 40 -11 40 -16 0 -6 23 -10 50 -10 28 0
50 -4 50 -9 0 -5 12 -12 26 -15 29 -8 54 -29 54 -45 0 -6 7 -11 15 -11 8 0 15
-7 15 -15 0 -8 4 -15 9 -15 5 0 13 -10 17 -22 4 -13 11 -26 16 -29 5 -3 12
-62 15 -130 3 -72 11 -127 17 -131 6 -4 28 -8 49 -8 20 0 37 -4 37 -10 0 -6
60 -10 160 -10 88 0 160 4 160 9 0 5 39 11 87 13 54 3 88 9 91 16 2 7 25 12
57 12 29 0 55 5 57 11 2 5 22 13 46 16 23 3 42 9 42 13 0 4 18 10 40 14 22 3
40 11 40 16 0 6 15 10 34 10 21 0 36 6 40 15 3 8 15 15 26 15 11 0 20 4 20 9
0 5 14 12 30 16 17 4 30 11 30 16 0 5 7 9 15 9 8 0 15 4 15 10 0 5 11 12 25
16 14 3 25 10 25 14 0 4 11 11 25 14 14 4 25 11 25 16 0 6 7 10 15 10 8 0 15
4 15 10 0 5 11 12 25 16 14 3 25 10 25 15 0 5 7 9 15 9 8 0 15 7 15 15 0 8 5
15 11 15 14 0 69 55 69 69 0 6 11 11 25 11 16 0 25 6 25 15 0 8 7 15 15 15 8
0 15 5 15 11 0 14 25 39 39 39 6 0 11 7 11 15 0 8 7 15 15 15 8 0 15 5 15 10
0 12 10 25 53 70 15 15 27 32 27 36 0 4 11 17 24 29 13 12 27 32 31 43 3 12
11 22 16 22 5 0 9 11 9 25 0 16 6 25 15 25 8 0 15 7 15 15 0 8 4 15 9 15 5 0
12 11 15 25 4 14 11 25 16 25 6 0 10 11 10 24 0 13 7 26 15 30 8 3 15 17 15
31 0 14 4 25 9 25 5 0 12 11 15 25 4 14 11 25 16 25 6 0 10 14 10 30 0 17 5
30 10 30 6 0 10 11 10 25 0 14 -4 25 -10 25 -5 0 -10 25 -10 55 0 30 -4 55 -9
55 -5 0 -12 23 -16 50 -4 28 -10 50 -15 50 -4 0 -11 11 -14 24 -4 17 -15 25
-40 30 -19 4 -36 12 -38 18 -6 16 -74 13 -92 -4 -50 -44 -59 -47 -82 -23 -9 8
-26 15 -40 15 -13 0 -24 4 -24 9 0 5 -18 11 -40 15 -22 3 -40 11 -40 16 0 6
-61 10 -160 10 -99 0 -160 -4 -160 -10 0 -5 -18 -13 -40 -16 -22 -4 -40 -10
-40 -14 0 -4 -18 -10 -40 -14 -22 -3 -40 -11 -40 -16 0 -6 -56 -10 -145 -10
-90 0 -145 4 -145 10 0 6 -7 10 -15 10 -9 0 -19 8 -22 18 -9 22 -29 42 -42 42
-6 0 -11 7 -11 15 0 8 -7 15 -15 15 -8 0 -15 4 -15 10 0 5 -11 12 -25 16 -14
3 -25 10 -25 15 0 5 -13 9 -30 9 -32 0 -64 25 -75 59 -3 12 -11 21 -16 21 -5
0 -9 36 -9 80 0 44 4 80 9 80 5 0 12 11 15 25 4 14 11 25 16 25 6 0 10 7 10
15 0 8 7 15 15 15 8 0 15 9 15 20 0 11 18 38 40 60 22 22 40 43 40 46 0 9 28
34 38 34 5 0 13 11 16 25 4 14 11 25 16 25 6 0 10 5 10 11 0 6 7 17 15 25 10
10 15 35 15 70 0 39 -4 56 -15 60 -12 5 -15 24 -15 85 0 45 4 79 10 79 5 0 12
11 16 25 3 14 10 25 14 25 4 0 11 11 14 25 4 14 11 25 16 25 6 0 10 11 10 25
0 16 6 25 15 25 8 0 15 5 15 11 0 7 11 22 25 35 14 13 25 32 25 44 0 11 7 20
15 20 8 0 15 7 15 15 0 8 5 15 10 15 6 0 10 11 10 24 0 14 7 31 15 40 11 11
15 40 15 120 0 59 4 106 9 106 5 0 13 9 16 21 11 35 64 80 100 86 19 3 35 10
35 14 0 5 36 9 80 9 44 0 80 -4 80 -9 0 -4 28 -11 63 -15 34 -3 64 -11 65 -16
2 -6 48 -10 107 -10 97 0 103 1 108 22 5 16 -5 32 -38 65 -24 23 -49 43 -55
43 -5 0 -10 7 -10 15 0 8 -5 15 -11 15 -6 0 -24 12 -39 28 -44 41 -58 52 -69
52 -5 0 -11 7 -15 15 -3 8 -12 15 -21 15 -9 0 -26 11 -39 25 -13 14 -32 25
-44 25 -11 0 -22 7 -26 15 -3 8 -12 15 -21 15 -8 0 -15 4 -15 10 0 5 -11 12
-25 16 -14 3 -25 10 -25 15 0 5 -11 9 -25 9 -14 0 -25 4 -25 9 0 5 -13 12 -30
16 -16 4 -30 10 -30 15 0 4 -18 10 -40 14 -22 3 -40 11 -40 16 0 6 -16 10 -36
10 -19 0 -42 7 -50 15 -9 8 -33 15 -55 15 -21 0 -39 4 -39 9 0 5 -29 13 -65
16 -36 4 -65 11 -65 16 0 13 -537 12 -542 -1z"/>
<path d="M1840 1006 c0 -9 7 -16 15 -16 8 0 15 -7 15 -15 0 -11 11 -15 40 -15
22 0 40 -4 40 -10 0 -5 5 -10 10 -10 16 0 12 40 -6 57 -9 9 -38 18 -65 21 -41
4 -49 2 -49 -12z"/>
</g>
</svg>
